<?xml version="1.0" encoding="utf-8"?>
<!-- Generator: Adobe Illustrator 26.0.1, SVG Export Plug-In . SVG Version: 6.00 Build 0)  -->
<svg version="1.1" xmlns="http://www.w3.org/2000/svg" xmlns:xlink="http://www.w3.org/1999/xlink" x="0px" y="0px"
	 viewBox="0 0 500 500" style="enable-background:new 0 0 500 500;" xml:space="preserve">
<g id="Floor">
	<ellipse style="fill:#F5F6F6;" cx="250" cy="351.73" rx="234.84" ry="135.59"/>
</g>
<g id="Shadows">
	<path style="fill:#E1E1E1;" d="M349.18,280.74l-198.36,114.5c-3.32,1.91-7.4,1.91-10.72,0l-10.47-6.04c-2.57-1.49-2.57-5.2,0-6.69
		L327.99,268c3.32-1.91,7.4-1.91,10.72,0l10.47,6.04C351.75,275.53,351.75,279.25,349.18,280.74z"/>
	<ellipse style="fill:#E1E1E1;" cx="318.78" cy="384.56" rx="42.65" ry="24.62"/>
	<ellipse style="fill:#E1E1E1;" cx="401.36" cy="296.74" rx="33.39" ry="19.28"/>
	<ellipse style="fill:#E1E1E1;" cx="98.92" cy="417.13" rx="33.39" ry="19.28"/>
</g>
<g id="Window">
	<path style="fill:#BD6EAD;" d="M137.76,162.35l201.2-116.16c2.31-1.33,4.38-1.23,5.86-0.01l6.97,4.82l-4.75,5.87v162.25
		c0,5.94-3.61,12.85-8.07,15.42l-199.2,115.01l-0.37,6.33l-7.34-5.03c-1.46-1.1-2.36-3.27-2.36-6.24V177.77
		C129.69,171.82,133.3,164.92,137.76,162.35z"/>
	<path style="fill:#F6D378;" d="M137.76,162.35l201.2-116.16c2.31-1.33,4.38-1.23,5.86-0.01l6.97,4.82l-4.75,5.87v162.25
		c0,5.94-3.61,12.85-8.07,15.42l-199.2,115.01l-0.37,6.33l-7.34-5.03c-1.46-1.1-2.36-3.27-2.36-6.24V177.77
		C129.69,171.82,133.3,164.92,137.76,162.35z"/>
	<g>
		<path style="fill:#E3BB53;" d="M136.54,349.31V182.48c0-3.2,1.05-6.66,2.71-9.59l-7.19-4.12c-1.47,2.8-2.37,6.01-2.37,8.99V344.6
			c0,2.97,0.9,5.14,2.36,6.24l6.76,4.63C137.41,354.35,136.54,352.22,136.54,349.31z"/>
		<path style="opacity:0.2;fill:#E3BB53;" d="M136.54,349.31V182.48c0-3.2,1.05-6.66,2.71-9.59l-7.19-4.12
			c-1.47,2.8-2.37,6.01-2.37,8.99V344.6c0,2.97,0.9,5.14,2.36,6.24l6.76,4.63C137.41,354.35,136.54,352.22,136.54,349.31z"/>
		<path style="opacity:0.3;fill:#E3BB53;" d="M139.28,355.8l0.11,0.07l0-0.01C139.35,355.85,139.32,355.82,139.28,355.8z"/>
	</g>
	<path style="fill:#BD6EAD;" d="M144.61,355.42l201.2-116.16c4.46-2.57,8.07-9.48,8.07-15.42V57c0-5.94-3.61-8.68-8.07-6.1
		l-201.2,116.16c-4.46,2.57-8.07,9.48-8.07,15.42v166.83C136.54,355.26,140.15,357.99,144.61,355.42z"/>
	<path style="fill:#BD6EAD;" d="M144.61,355.42l201.2-116.16c4.46-2.57,8.07-9.48,8.07-15.42V57c0-5.94-3.61-8.68-8.07-6.1
		l-201.2,116.16c-4.46,2.57-8.07,9.48-8.07,15.42v166.83C136.54,355.26,140.15,357.99,144.61,355.42z"/>
	<path style="fill:#F6E4B4;" d="M144.61,355.42l201.2-116.16c4.46-2.57,8.07-9.48,8.07-15.42V57c0-5.94-3.61-8.68-8.07-6.1
		l-201.2,116.16c-4.46,2.57-8.07,9.48-8.07,15.42v166.83C136.54,355.26,140.15,357.99,144.61,355.42z"/>
	<path style="fill:#BD6EAD;" d="M144.61,167.06L345.81,50.9c4.46-2.57,8.07,0.16,8.07,6.1v8.16L136.54,190.64v-8.16
		C136.54,176.54,140.15,169.64,144.61,167.06z"/>
	<path style="fill:#F6DA91;" d="M144.61,167.06L345.81,50.9c4.46-2.57,8.07,0.16,8.07,6.1v8.16L136.54,190.64v-8.16
		C136.54,176.54,140.15,169.64,144.61,167.06z"/>
	<path style="fill:#BD6EAD;" d="M349.02,50.72c2.48,0,4.08,2.47,4.08,6.28v166.83c0,5.68-3.44,12.3-7.68,14.74l-201.2,116.16
		c-0.99,0.57-1.94,0.86-2.81,0.86c-2.48,0-4.08-2.47-4.08-6.28V182.48c0-5.68,3.44-12.3,7.68-14.74l201.2-116.16
		C347.2,51.01,348.14,50.72,349.02,50.72 M349.02,49.93c-0.98,0-2.07,0.31-3.2,0.97l-201.2,116.16c-4.46,2.57-8.07,9.48-8.07,15.42
		v166.83c0,4.43,2,7.07,4.87,7.07c0.98,0,2.07-0.31,3.2-0.97l201.2-116.16c4.46-2.57,8.07-9.48,8.07-15.42V57
		C353.88,52.58,351.88,49.93,349.02,49.93L349.02,49.93z"/>
	<g>
		<path style="fill:#FFFFFF;" d="M153.67,172.14c0,1.93-1.35,4.27-3.02,5.23c-1.67,0.96-3.02,0.18-3.02-1.74
			c0-1.93,1.35-4.27,3.02-5.23C152.32,169.43,153.67,170.21,153.67,172.14z"/>
		<path style="fill:#FFFFFF;" d="M164.32,165.99c0,1.93-1.35,4.27-3.02,5.23c-1.67,0.96-3.02,0.18-3.02-1.74
			c0-1.93,1.35-4.27,3.02-5.23C162.97,163.28,164.32,164.06,164.32,165.99z"/>
		<path style="fill:#FFFFFF;" d="M174.97,159.84c0,1.93-1.35,4.27-3.02,5.23c-1.67,0.96-3.02,0.18-3.02-1.74
			c0-1.93,1.35-4.27,3.02-5.23C173.62,157.13,174.97,157.91,174.97,159.84z"/>
	</g>
</g>
<g id="Character_3">
	<polygon style="fill:#BD6EAD;" points="196.15,213.25 191.86,211.39 191.86,166.92 196.15,168.77 	"/>
	<polygon style="fill:#A0792C;" points="196.15,213.25 191.86,211.39 191.86,166.92 196.15,168.77 	"/>
	<polygon style="fill:#BD6EAD;" points="370.64,67.82 196.15,168.77 191.86,166.92 366.34,65.96 	"/>
	<polygon style="fill:#D29F2A;" points="370.64,67.82 196.15,168.77 191.86,166.92 366.34,65.96 	"/>
	<polygon style="fill:#BD6EAD;" points="370.64,112.29 196.15,213.25 196.15,168.77 370.64,67.82 	"/>
	<polygon style="fill:#F6B918;" points="370.64,112.29 196.15,213.25 196.15,168.77 370.64,67.82 	"/>
	<g>
		<path style="fill:#A75959;" d="M416.83,181.68l3.47,4.12c0,0,0.39,4.78,2.44,11.23c2.05,6.44,1.66,9.18,1.66,9.18l7.34-0.57
			l-2.94-22.98c-0.2-1.54-0.73-3.02-1.55-4.33l-1.78-2.87L416.83,181.68z"/>
		<path style="fill:#2B464F;" d="M420.85,298.17c0,0-4.61,3.59-4.17,5.71c0.44,2.12,7.63,3.12,11.12-1.02
			c1.55-1.84,2.64-5.57,2.79-10.11c0.07-2.27,2.93-5.64,0-7.98c-2.93-2.34-4.1-2.93-4.83-2.64
			C425.03,282.43,420.85,298.17,420.85,298.17z"/>
		<path style="fill:#A75959;" d="M417.41,280.82l2.71,5.78c0,0,0.88,8.35,0.73,11.57c0,0,4.17,2.56,5.42-2.29
			c0.73-2.87,0.66-7,0.66-7s-0.83-2.95-0.57-4.99c0.07-0.52,0.04-1.05-0.09-1.56l-1.24-5.1L417.41,280.82z"/>
		<path style="fill:#2B464F;" d="M379.84,290.36c0,0-1.67,1.12-2.84,1.95c-1.17,0.83-6.07,4.9,0.78,6.15
			c1.73,0.32,6.1,0.24,9.47-3.08c3.37-3.32,5.81-2.29,7.03-3.61c1.22-1.32,0.33-8.69-1.35-8.35L379.84,290.36z"/>
		<path style="fill:#A75959;" d="M385.54,277.38l0.53,4.77c0.05,0.41-0.02,0.82-0.19,1.19c-0.49,1.05-1.91,3.34-6.04,7.02
			c0,0-0.07,3.69,5.12,1.9c1.03-0.35,2.87-1.6,4-2.41c0.6-0.43,1.09-0.99,1.45-1.64c0.51-0.91,1.37-2.28,2.4-3.16l0.54-7.69H385.54z
			"/>
		<path style="fill:#385A65;" d="M381.02,196.62c0,0-1.44,7.15-1.15,20.72c0.2,9.12,0.38,15.94,0.48,19.44
			c0.05,1.74,0.19,3.47,0.42,5.19l4.76,35.41c0,0,3.9,2.25,7.81,0c0,0,0.68-7.81,1.46-11.91c0.69-3.63,1.61-14.24-0.22-19.8
			c-0.53-1.6-0.63-3.32-0.38-4.99l5.39-35.64L381.02,196.62z"/>
		<path style="fill:#2B464F;" d="M384.7,204.82c0,0,1.52,4.91,6.99,7.15l3.95,19.26l3.96-26.19L384.7,204.82z"/>
		<path style="fill:#385A65;" d="M382.61,196.25c0,0-0.98,8.69,6.25,12.08c3.2,1.5,4.54,1.68,4.54,1.68s5.93,35.36,7.03,38
			c1.1,2.64,16.99,32.8,16.99,32.8s6.3,1.32,7.61-3.59c0,0-1.39-6.44-3.15-13.47c-1.48-5.92-3.22-12.62-6.27-15.9
			c-1.15-1.24-1.82-2.85-1.79-4.54c0.13-5.75,0.39-17.82,0.44-21.07c0.07-4.32,1.68-18.09-1.1-23.65l-8.58-7.83L382.61,196.25z"/>
		<path style="fill:#A75959;" d="M376.66,147.74l-6.46-3.84c0,0-4.11-5.19-7.44-9.81c-3.33-4.61-4.72-7.03-4.72-7.03
			s1.76-2.56,1.76-5.34c0-2.78-0.15-4.1,0.37-5.13c0.51-1.03,0-2.12-1.39-1.68c-1.39,0.44-2.42,3.43-1.98,5.38l-7.76,4.51
			c0,0,1.3,3.44,3.08,5.05c0,0,7.1,17.13,9.88,19.91c2.78,2.78,7.64,6.55,7.64,6.55L376.66,147.74z"/>
		<path style="fill:#BD6EAD;" d="M389.93,155.62l-13.28-7.88c0,0-6.14,0.44-7.03,8.57l11.62,8.7L389.93,155.62z"/>
		<path style="opacity:0.2;" d="M389.93,155.62l-13.28-7.88c0,0-6.14,0.44-7.03,8.57l11.62,8.7L389.93,155.62z"/>
		<path style="fill:#BD6EAD;" d="M392.5,155.62l8.86,0.44l5.79,0.29l0.96,13.69c0,0-1.54,7.91-2.71,10.69
			c-1.17,2.78,6.52,14.2,7.76,17.87c0,0-4.91,0.66-7.39-4.98c0,0-3.22,8.93-13.76,8.93c-7.05,0-10.98-5.93-10.98-5.93l1.61-10.03
			c0,0-1.61-4.76-1.61-9.44c0,0-3.99-1.47-3.09-7.4c0.9-5.93,12-14.13,12-14.13H392.5z"/>
		<g>
			<path style="fill:#192E35;" d="M410.6,133.51c0,0,5.06-4.19,9.45,0.59c6.3,6.86-7.32,20.35,4.76,20.65c0,0-1.39,1.61-6.08,1.61
				c-4.69,0-8.71-4.85-7.91-13.77L410.6,133.51z"/>
			<path style="fill:#BD6EAD;" d="M408.99,133.29c0,0,1.62-0.99,2.24-0.27c0.62,0.71,1.44,6.31-0.41,9.57
				c-0.88,1.55-2.64-0.58-2.64-0.58L408.99,133.29z"/>
			<path style="fill:#192E35;" d="M381.83,134.09c0,0,0.07,5.79-3.66,4.18c0,0,0.81,2.47,3.89,2.47c2.05,0,3.23-2.05,3.23-3.57
				L381.83,134.09z"/>
			
				<ellipse transform="matrix(0.925 -0.3801 0.3801 0.925 -20.4323 160.2649)" style="fill:#192E35;" cx="395.65" cy="131.88" rx="11.3" ry="11.3"/>
			<path style="fill:#192E35;" d="M410.16,137.17c0,6.24-5.57,14.18-11.81,14.18c-6.24,0-11.3-5.06-11.3-11.3
				c0-6.24,5.06-13.35,11.3-13.35C404.59,126.7,410.16,128.82,410.16,137.17z"/>
			<path style="fill:#192E35;" d="M392.89,130.54c0,3.66-2.97,6.63-6.63,6.63c-3.66,0-6.63-2.97-6.63-6.63
				c0-3.66,2.97-6.63,6.63-6.63C389.92,123.92,392.89,126.88,392.89,130.54z"/>
			<g>
				<path style="fill:#A75A5A;" d="M392.5,149.54v6.08c0,0-5.67,5.71-0.14,6.21c5.53,0.5,9.01-5.77,9.01-5.77v-11.59L392.5,149.54z"
					/>
				<path style="fill:#803636;" d="M401.26,142.64l0,0.32c-1.98,7.79-7.11,9.49-8.77,9.88l-0.06-12.06l8.57-0.04L401.26,142.64z"/>
				<path style="fill:#A75A5A;" d="M394.1,125.29c-3.27,0.27-10.08,2.66-10.18,11.29c-0.1,8.63,1.22,15.2,5.69,15.48
					c4.47,0.27,14.46-3.77,14.93-14.96C405,125.91,397.29,125.03,394.1,125.29z"/>
				<polygon style="fill:#803636;" points="389.96,140.05 390.04,145.11 387.06,144.25 				"/>
				<path style="fill:#1A2F36;" d="M394.41,139.91c0.01,0.57-0.45,1.04-1.02,1.05c-0.57,0.01-1.04-0.45-1.05-1.02
					c-0.01-0.57,0.45-1.04,1.02-1.05S394.4,139.34,394.41,139.91z"/>
				<path style="fill:#1A2F36;" d="M387.61,139.29c0.01,0.57-0.45,1.04-1.02,1.05c-0.57,0.01-1.04-0.45-1.05-1.02
					c-0.01-0.57,0.45-1.04,1.02-1.05C387.14,138.26,387.6,138.72,387.61,139.29z"/>
				<path style="fill:#BE6FAD;" d="M385.29,137.17l2-1.23c0,0-0.79-0.79-1.55-0.3C384.98,136.14,385.29,137.17,385.29,137.17z"/>
				<path style="fill:#803636;" d="M389.37,146.88c0,0,0.97-0.43,3.04-1.68c0,0,0.65,1.66-0.71,2.35
					C390.35,148.23,389.37,146.88,389.37,146.88z"/>
				<path style="fill:#1A2F36;" d="M385.29,137.17l2-1.23c0,0-0.79-0.79-1.55-0.3C384.98,136.14,385.29,137.17,385.29,137.17z"/>
				<path style="fill:#1A2F36;" d="M399.49,139.44c0,0-0.2,3.63,1.89,3.63h4.1v-6.92c0-7.76-5.89-15.87-18.42-9.46
					C387.06,126.69,386.45,137.05,399.49,139.44z"/>
				<path style="fill:#A75A5A;" d="M401.07,143.23c-0.01-0.79,0.12-1.58,0.45-2.3c0.37-0.8,1.02-1.61,2.13-1.63
					c2.44-0.04,2.74,2.31,2.7,3.14c-0.11,2.19-1.91,4.55-5.22,4.6L401.07,143.23z"/>
			</g>
		</g>
		<path style="fill:#BD6EAD;" d="M406.35,156.31c0,0-5.76,5.74,1.59,14.6c7.35,8.87,8.89,10.77,8.89,10.77s7.54,0.73,8.64-6.22
			c0,0-8.86-12.45-11.28-15.6C411.77,156.72,409.57,156.47,406.35,156.31z"/>
		<path style="opacity:0.2;" d="M406.35,156.31c0,0-5.76,5.74,1.59,14.6c7.35,8.87,8.89,10.77,8.89,10.77s7.54,0.73,8.64-6.22
			c0,0-8.86-12.45-11.28-15.6C411.77,156.72,409.57,156.47,406.35,156.31z"/>
		<path style="opacity:0.3;" d="M389.59,177.88c0,0,8.82,2.47,11.77-5.93C401.36,171.95,399.84,182.42,389.59,177.88z"/>
		<path style="fill:#A75959;" d="M424.39,206.21c0,0-1.41,0.82-1.73,3.75c-0.09,0.84-1.64,2.71-1.41,3.18
			c0.23,0.48,1.78,1.1,3.44-1.64c0,0,0.5,2.07,0.06,4.23c-0.45,2.17-1.23,4.95,1.6,4.34c2.84-0.62,6.96-2.85,6.33-7.07
			c-0.6-4.07-0.94-7.37-0.94-7.37L424.39,206.21z"/>
	</g>
</g>
<g id="Character_2">
	<polygon style="fill:#BD6EAD;" points="257.81,260.82 253.51,258.97 253.51,214.5 257.81,216.35 	"/>
	<polygon style="fill:#A0792C;" points="257.81,260.82 253.51,258.97 253.51,214.5 257.81,216.35 	"/>
	<polygon style="fill:#BD6EAD;" points="358.13,158.31 257.81,216.35 253.51,214.5 353.83,156.46 	"/>
	<polygon style="fill:#D29F2A;" points="358.13,158.31 257.81,216.35 253.51,214.5 353.83,156.46 	"/>
	<polygon style="fill:#BD6EAD;" points="358.13,202.78 257.81,260.82 257.81,216.35 358.13,158.31 	"/>
	<polygon style="fill:#F6B918;" points="358.13,202.78 257.81,260.82 257.81,216.35 358.13,158.31 	"/>
	<g>
		<path style="fill:#BD6EAD;" d="M345.13,383.1c0,0,4.08-2.28,4.59-4.82c0.51-2.54-3.96-8.4-3.96-8.4S342.41,371.78,345.13,383.1z"
			/>
		<path style="opacity:0.2;" d="M345.13,383.1c0,0,4.08-2.28,4.59-4.82c0.51-2.54-3.96-8.4-3.96-8.4S342.41,371.78,345.13,383.1z"/>
		<polygon style="fill:#BD6EAD;" points="295.18,390.97 301.13,387.46 301.91,381.5 299.86,381.02 		"/>
		<polygon style="opacity:0.3;" points="295.18,390.97 301.13,387.46 301.91,381.5 299.86,381.02 		"/>
		<path style="fill:#F7A3A8;" d="M330.42,356.71l5.56,8.88l3.71,12.3c0,0,6.84-0.85,2.54-16.64l-3.22-9.52L330.42,356.71z"/>
		<path style="fill:#F7A3A8;" d="M294.01,360.03l1.17,14.15l-4.1,10.84c0,0,2.05,5.08,8.49-5.66c3.42-5.69,3.53-6.83,3.53-6.83
			l1.35-12.49H294.01z"/>
		<path style="fill:#F58C91;" d="M299.31,222.16l-2.09,4.14c-0.13,0.26,0,0.57,0.27,0.66l2.48,0.83L299.31,222.16z"/>
		<path style="fill:#F7A3A8;" d="M302.21,215.22c0,0-3.17,1.71-3.17,11.51c0,5.39,0.37,8.83,3.17,8.61
			c2.8-0.21,10.86-1.27,10.86-1.27v-18.86H302.21z"/>
		<g>
			<path style="fill:#F58C91;" d="M302.21,235.35c0.98-0.07,2.62-0.25,4.32-0.45v-1c-1.57,0.8-4.37,1.37-4.79,1.45
				C301.89,235.36,302.04,235.36,302.21,235.35z"/>
			<g>
				<polygon style="fill:#F7A3A8;" points="306.05,233.47 306.05,239.63 314.47,239.63 314.47,230.98 				"/>
			</g>
		</g>
		<path style="fill:#F7A3A8;" d="M320.46,255.08l5.47,11.23l-4.1,5.37l2.83,9.59l8.79-10.38c1.55-1.83,1.98-4.37,1.11-6.61
			c-2.42-6.22-7.24-18.46-8.54-20.63c-1.76-2.93-3.86-4.49-7-4.39C315.87,239.37,320.46,255.08,320.46,255.08z"/>
		<path style="fill:#BD6EAD;" d="M323.1,273.53c1.27,3.81,4.04,9.16,3.92,27.18c-0.08,12.59,0.04,19.67,0.12,22.8
			c0.03,1.12,0.45,2.19,1.22,3c1.34,1.39,3.62,4.36,5.77,9.99c3.3,8.67,4.88,15.23,4.88,15.23s-1.56,5.08-8.59,4.98l-17.58-28.25
			c-0.7-1.13-1.16-2.4-1.33-3.72l-4.62-35.09v-14.35L323.1,273.53z"/>
		<path style="opacity:0.6;" d="M323.1,273.53c1.27,3.81,4.04,9.16,3.92,27.18c-0.08,12.59,0.04,19.67,0.12,22.8
			c0.03,1.12,0.45,2.19,1.22,3c1.34,1.39,3.62,4.36,5.77,9.99c3.3,8.67,4.88,15.23,4.88,15.23s-1.56,5.08-8.59,4.98l-17.58-28.25
			c-0.7-1.13-1.16-2.4-1.33-3.72l-4.62-35.09v-14.35L323.1,273.53z"/>
		<path style="fill:#BD6EAD;" d="M310.6,317.78l4.89-17.5c0,0,6.86-6.97,4.42-19.01l-10.37,13.05l0.53,19.92L310.6,317.78z"/>
		<path style="opacity:0.7;" d="M310.6,317.78l4.89-17.5c0,0,6.86-6.97,4.42-19.01l-10.37,13.05l0.53,19.92L310.6,317.78z"/>
		<path style="fill:#BD6EAD;" d="M294.49,274.51c-0.29,5.66-3.37,40.9-2.93,51.15c0.44,10.25,2.44,34.37,2.44,34.37
			s6.64,2.74,10.45,0c0,0,1.61-9.5,2.66-17.02c0.79-5.61,0.16-9.55-0.4-11.68c-0.37-1.41-0.36-2.88,0.01-4.28l7.48-28.71
			c0,0,6.45-4.53,6.45-17.06c0-5.2,0-9.4,0-9.4L294.49,274.51z"/>
		<path style="opacity:0.6;" d="M294.49,274.51c-0.29,5.66-3.37,40.9-2.93,51.15c0.44,10.25,2.44,34.37,2.44,34.37
			s6.64,2.74,10.45,0c0,0,1.61-9.5,2.66-17.02c0.79-5.61,0.16-9.55-0.4-11.68c-0.37-1.41-0.36-2.88,0.01-4.28l7.48-28.71
			c0,0,6.45-4.53,6.45-17.06c0-5.2,0-9.4,0-9.4L294.49,274.51z"/>
		<path style="fill:#385A65;" d="M312.46,235.3l-13.42,4.94c0,0-6.3,5.47-6.3,15.91c0,2.93,2.83,5.56,2.83,5.56
			s-0.98,9.18-1.07,12.79c0,0,6.88,4.83,19.71,2.93c4.6-0.68,8.9-3.9,8.9-3.9s-1.95-8.1-2.25-8.88c-0.29-0.78,2.73-10.25,2.73-17.77
			L312.46,235.3z"/>
		<path style="fill:#192E35;" d="M300.57,217.41c0,0,0.54,4.74,3.56,6.03c0,0-2.4,3.29,1.17,4.73l0-2.54l1.49,2.91
			c0,0-4.2,16.99,3.08,16.99c1.51,0,2.78-0.59,3.47-1.22c0,0,1.12,4.44,7.86,4.44c6.74,0,8.01-6.59,8.01-6.59s-4.49,1.37-4.49-3.32
			c0-4.69-0.34-19.72-0.59-22.01c-0.24-2.29-2.83-8.27-10.01-9.13c-5.24-0.62-12.06-0.59-15.96,4.83c-3.9,5.42,1.69,6.94,1.69,6.94
			S299.92,219.27,300.57,217.41z"/>
		<path style="fill:#F7A3A8;" d="M305.3,225.62c0,0-0.23-4.14,2.98-3.83c3.68,0.37,2.51,7.03-1.98,7.03L305.3,225.62z"/>
		<g>
			<path style="fill:#BD6EAD;" d="M325.81,213c-1.26-1.75-2.37-2.73-3.37-3.23c-1.83-0.93-4-0.01-4.9,1.84
				c-0.55,1.13-0.75,2.46-0.47,3.85c0.44,2.14,2.11,3.89,4.22,4.47c0.34,0.09,0.69,0.16,1.02,0.19c1.95,0.19,3.65-1.08,4.15-2.97
				c0.12-0.47,0.2-0.95,0.21-1.45C326.69,214.73,326.37,213.78,325.81,213z"/>
			<path style="fill:#192E35;" d="M328.56,213.97c0,2.92-2.37,5.28-5.28,5.28c-2.92,0-5.28-2.37-5.28-5.28
				c0-2.92,2.37-5.28,5.28-5.28C326.2,208.68,328.56,211.05,328.56,213.97z"/>
		</g>
		<path style="fill:#F7A3A8;" d="M299.04,240.24c0,0,4.54,0.68,4.54,6.74s-11.13,8.79-16.4,10.74c-3.05,1.13-7.07,2.71-9.92,3.85
			c-2.24,0.89-4.78,0.45-6.58-1.14c-3.62-3.19-9.83-9.09-15-16.18c0,0-6.36-2.25-6.17-8.49c0.2-6.25,4.02-7.97,4.02-7.97v2.08
			c0,1.38,0.64,2.67,1.73,3.52l1.27,0.98c0.6,0.47,1.49,0.22,1.75-0.5c0.44-1.2,1.21-2.76,2.36-3.28c1.95-0.88,1.27,2.91,0.78,4.72
			c-0.49,1.82-0.39,3.18-0.39,3.18l14.25,12.59C275.26,251.08,290.84,242.84,299.04,240.24z"/>
		<path style="fill:#BD6EAD;" d="M303.1,372.53c0,0-3.24,0.39-4.8,3.51c-1.56,3.12-4.49,11.91-7.22,8.98l0.93-2.45
			c0,0-10.92,2.39-8.32,5.25c2.61,2.86,10.81,4.13,11.49,3.15c0.68-0.98,4.39-8,4.39-8l2.05,9.37c0,0,0.88,0.88,2.15,0
			C303.77,392.34,306.44,374.38,303.1,372.53z"/>
		<path style="fill:#BD6EAD;" d="M339.69,377.89c0,0,2.54-1.07,2.15-4.39c-0.39-3.32-2.92-9.93,0.39-12.25
			c1.46-1.03,4.73,3.46,7.49,8.83c2.76,5.37,3.54,6.93,3.54,6.93s-0.31,1.43-1.56,1.37l-6.05-6.25c0,0-0.68,2.83,0.2,5.76
			c0.88,2.93,1,4.63-2.19,6.05c-3.19,1.42-11.92,3.36-7.26-2.54C338.72,378.48,339.69,377.89,339.69,377.89z"/>
	</g>
	<rect x="-128" y="166.88" style="fill:#F6B918;" width="28.2" height="47.91"/>
</g>
<g id="Character_1">
	<path style="fill:#F7A3A8;" d="M105.26,394.07l0.78,8.07c0,0,0.87,1.66,4.88,1.66c4.01,0,3.12-3.42,3.12-3.42l0.39-6.32H105.26z"/>
	<path style="fill:#2B464F;" d="M117.3,312.38c0,4.2-0.39,45.09-0.41,47.84c0,0.1,0,0.19-0.01,0.29
		c-0.16,2.28-2.15,30.31-2.43,33.56c0,0-4.79,3.64-9.18,0c0,0-1.17-9.89-1.56-12.82c-0.39-2.93-1.86-16.03,0-20.31l-4.78-24.8v-19.9
		L117.3,312.38z"/>
	<path style="fill:#192E35;" d="M111.88,318.66c0,0-1.05,6.26-8.18,9.68l-3.16,16.25l-1.63-7.56v-17.77L111.88,318.66z"/>
	<path style="fill:#F7A3A8;" d="M74.61,400.38l-0.78,5.96c0,0,2.09,5.46,8.47,2.83l1.17-6.24L74.61,400.38z"/>
	<path style="fill:#2B464F;" d="M83.47,313.11c-0.44,4.69-1.73,16.6-2.22,32.02c-0.49,15.42-0.49,15.33-0.49,15.33
		s-2.94,6.13-3.55,11.91c-0.61,5.78-2.6,28.02-2.6,28.02s3.08,3.81,8.86,2.54l11.78-36.99c0.32-1.01,0.57-2.04,0.73-3.08l5.77-36.36
		c0,0,10.06-1.37,12.3-14.35L83.47,313.11z"/>
	<polygon style="fill:#F58C91;" points="120.52,284.33 131.86,293.41 131.86,280.23 127.84,276.13 	"/>
	<path style="fill:#BD6EAD;" d="M109.46,263.76c0,0,3.98-0.51,7.48,2.27c3.5,2.78,10.9,10.1,10.9,10.1s-0.44,6.08-7.32,8.2
		l-7.25-5.2L109.46,263.76z"/>
	<path style="opacity:0.2;fill:#FFFFFF;" d="M109.46,263.76c0,0,3.98-0.51,7.48,2.27c3.5,2.78,10.9,10.1,10.9,10.1
		s-0.44,6.08-7.32,8.2l-7.25-5.2L109.46,263.76z"/>
	<path style="fill:#BD6EAD;" d="M94.74,263.83c0,0-7.46,0.74-10.83,1.48l-1.24,13.46c0,0,2.63,14.96,2.63,17.11
		c0,2.15-1.82,17.23-1.82,17.23s5.15,3.37,20.13,3.37c7.47,0,13.69-4.1,13.69-4.1s0-24.07,0-29.9c0-5.83-2.27-14.98-7.83-18.71
		h-4.58L94.74,263.83z"/>
	<path style="opacity:0.2;" d="M94.74,263.83c0,0-7.46,0.74-10.83,1.48l-1.24,13.46c0,0,2.63,14.96,2.63,17.11
		c0,2.15-1.82,17.23-1.82,17.23s5.15,3.37,20.13,3.37c7.47,0,13.69-4.1,13.69-4.1s0-24.07,0-29.9c0-5.83-2.27-14.98-7.83-18.71
		h-4.58L94.74,263.83z"/>
	<polygon style="fill:#BD6EAD;" points="136.15,304.91 131.86,303.06 131.86,258.59 136.15,260.44 	"/>
	<polygon style="fill:#A0792C;" points="136.15,304.91 131.86,303.06 131.86,258.59 136.15,260.44 	"/>
	<polygon style="fill:#BD6EAD;" points="236.47,202.4 136.15,260.44 131.86,258.59 232.17,200.55 	"/>
	<polygon style="fill:#D29F2A;" points="236.47,202.4 136.15,260.44 131.86,258.59 232.17,200.55 	"/>
	<polygon style="fill:#BD6EAD;" points="236.47,246.87 136.15,304.91 136.15,260.44 236.47,202.4 	"/>
	<polygon style="fill:#F6B918;" points="236.47,246.87 136.15,304.91 136.15,260.44 236.47,202.4 	"/>
	<g>
		<path style="fill:#192E35;" d="M113.98,235.46c0,0,5.83,5.12,0.76,16.53l-5.93-15.42L113.98,235.46z"/>
		<path style="fill:#F7A3A8;" d="M94.74,263.83c0,0,2.01,5.34,7.58,5.34c5.56,0,2.57-5.42,2.57-5.42L94.74,263.83z"/>
		<g>
			<g>
				<polygon style="fill:#F7A3A8;" points="94.74,263.83 104.88,263.76 104.88,248.25 94.74,248.25 				"/>
			</g>
		</g>
		<path style="fill:#F58C91;" d="M104.88,263.14c-3.74-1.44-8.5-3.84-8.5-6.13l-1.23-7.71h9.73V263.14z"/>
		<path style="fill:#F7A3A8;" d="M102.55,232.3c3.58,0,11.19,1.99,12.06,11.36c0.88,9.36-0.49,17.32-4.8,17.32
			c-8.46,0-16.58-1.07-16.65-14.92C93.1,233.85,99.06,232.3,102.55,232.3z"/>
		<path style="fill:#192E35;" d="M94.75,254.26l1.38-4.23c0.46,0.39,1.17,0.06,1.17-0.54v-7.54c0,0,3.52-1,3.14-3.96
			c0,0,1.8,1.61,8.7,1.61c6.9,0,8.58-5.85,7.89-9.1c0,0-1.28,1.32-4.93,1.32c-3.65,0-18.84-4.58-19.23,4.59c0,0-1.28-1.88-3.35,0
			l2.66,1.58c0,0-3.16-0.1-2.66,4.54c0.39,3.65,1.91,10.58,2.54,13.36c0.17,0.77,0.63,1.44,1.29,1.88l1.4,0.94V254.26z"/>
		<polygon style="fill:#F58C91;" points="107.93,246.47 107.93,251.99 111.16,250.99 		"/>
		<g>
			<path style="fill:#192E35;" d="M102.19,247.42c0,0.62,0.5,1.12,1.12,1.12c0.62,0,1.12-0.5,1.12-1.12c0-0.62-0.5-1.12-1.12-1.12
				C102.69,246.3,102.19,246.8,102.19,247.42z"/>
			<path style="fill:#192E35;" d="M110.6,246.64c0,0.62,0.5,1.12,1.12,1.12c0.62,0,1.12-0.5,1.12-1.12c0-0.62-0.5-1.12-1.12-1.12
				C111.11,245.51,110.6,246.01,110.6,246.64z"/>
			<path style="fill:#192E35;" d="M113.1,244.29l-2.2-1.31c0,0,0.84-0.88,1.68-0.35C113.42,243.16,113.1,244.29,113.1,244.29z"/>
			<path style="fill:#192E35;" d="M101.03,245.11l2.2-1.31c0,0-0.84-0.88-1.68-0.35C100.7,243.98,101.03,245.11,101.03,245.11z"/>
		</g>
		<path style="fill:#F58C91;" d="M109.45,254.22c0,0-1.79,0.16-3.03-0.81c0,0-0.21,1.6,1.13,1.9
			C108.88,255.62,109.45,254.22,109.45,254.22z"/>
		<path style="fill:#F7A3A8;" d="M95.58,248.45c1.27,2.21,0.95,4.89-0.83,5.81c-1.14,0.59-4.52-0.68-5.79-2.89
			c-1.27-2.21-0.56-4.1,1.18-5.1C91.87,245.27,94.3,246.24,95.58,248.45z"/>
		<polygon style="fill:#182F37;" points="96.22,250.09 92.33,245.87 95.12,244.19 		"/>
	</g>
	<path style="fill:#F7A3A8;" d="M101.99,281.4l5.34,5.93c0,0,4.37-0.61,9.44-0.88c4.31-0.23,11.93-2.09,11.93-2.09s1-4.28,3.14-5.97
		v3.35c0,0,2.88,0.98,4.3-0.42c2.45-2.42,4.63-4.63,4.64,0.42c0,7.05-2.95,9.91-11.1,9.76c0,0-20.44,8.57-25.35,7.61
		c-2.95-0.57-11.24-8.35-11.24-8.35L101.99,281.4z"/>
	<g>
		<path style="fill:#BD6EAD;" d="M80.03,267.26c3.44-3.5,7.38-1.86,10.82,1.58c3.44,3.44,11.15,12.57,11.15,12.57
			s-0.78,7.12-8.89,9.37c0,0-10.94-11.38-12.34-12.94C78.23,275.04,76.74,270.6,80.03,267.26z"/>
		<path style="opacity:0.2;fill:#FFFFFF;" d="M80.03,267.26c3.44-3.5,7.38-1.86,10.82,1.58c3.44,3.44,11.15,12.57,11.15,12.57
			s-0.78,7.12-8.89,9.37c0,0-10.94-11.38-12.34-12.94C78.23,275.04,76.74,270.6,80.03,267.26z"/>
	</g>
	<path style="fill:#F7A3A8;" d="M152.56,295.44c0,0,0.13-3.61,3.07-5.85c4.61-3.51,4.42-0.03,4.54,1.45
		c0.11,1.48-4.27,6.6-9.07,5.25L152.56,295.44z"/>
	<path style="fill:#385A65;" d="M73.83,406.34c0,0,0.41,0.92,1.02,1.48c0.42,0.39,1.11,0.1,1.18-0.47c0.09-0.71,0.38-1.34,0.98-1.6
		c0.68-0.29,6.2-0.39,6.25,0.73c0.05,1.12-0.24,2.51-0.24,2.51s0.88,7.58,2.58,10.58c1.7,3,4.44,7.86-1.37,9.27
		c-5.81,1.42-10.2-1.66-10.4-5.76c-0.2-4.1-0.1-6.98-0.49-7.71c-0.39-0.73-2.44-1.07-1.66-4.83c0.78-3.76,0.89-6.03,2.4-6.11
		L73.83,406.34z"/>
	<path style="fill:#EBEBEB;" d="M77.79,413.3c-0.17,0-0.33-0.08-0.43-0.22c-0.17-0.24-0.11-0.56,0.13-0.73
		c0.11-0.08,2.77-1.91,6.2-0.39c0.26,0.12,0.38,0.43,0.27,0.69c-0.12,0.27-0.42,0.39-0.69,0.27c-2.87-1.27-5.08,0.23-5.17,0.29
		C77.99,413.27,77.89,413.3,77.79,413.3z"/>
	<path style="fill:#EBEBEB;" d="M78.65,416.98c-0.17,0-0.33-0.08-0.43-0.22c-0.17-0.24-0.11-0.56,0.13-0.73
		c0.11-0.08,2.77-1.91,6.2-0.39c0.26,0.12,0.38,0.43,0.27,0.69c-0.12,0.27-0.43,0.38-0.69,0.27c-2.87-1.27-5.08,0.23-5.17,0.29
		C78.86,416.95,78.76,416.98,78.65,416.98z"/>
	<path style="fill:#EBEBEB;" d="M80,420.65c-0.16,0-0.33-0.08-0.43-0.22c-0.17-0.24-0.11-0.56,0.13-0.73
		c0.11-0.08,2.77-1.91,6.2-0.39c0.26,0.12,0.38,0.43,0.27,0.69c-0.12,0.27-0.42,0.38-0.69,0.27c-2.89-1.28-5.15,0.27-5.17,0.29
		C80.21,420.62,80.11,420.65,80,420.65z"/>
	<path style="fill:#385A65;" d="M106.05,402.14c0,0,1.9,1.3,3.51,1.04c0,0-0.59-2.31,1.12-3.09c1.71-0.78,4.44-1.81,4.98-0.88
		c0.54,0.93,0.63,3.32,0.63,3.32s4.08,3.69,7.09,4.73c3.01,1.03,6.95,2.11,6.63,4.89c-0.32,2.78-4.88,6.83-10.98,4.05
		c-6.1-2.78-7.22-2.88-9.18-3.17c-1.95-0.29-5.61-0.15-5.47-3.42c0.15-3.27-0.12-8.68,1.5-9.12L106.05,402.14z"/>
	<path style="fill:#EBEBEB;" d="M113.06,407.14c-0.06,0-0.12-0.01-0.18-0.03c-0.27-0.1-0.41-0.4-0.31-0.67
		c0.05-0.12,1.15-3.02,4.67-3.43c0.29-0.04,0.55,0.17,0.58,0.46c0.03,0.29-0.17,0.55-0.46,0.58c-2.87,0.34-3.77,2.66-3.81,2.76
		C113.47,407,113.27,407.14,113.06,407.14z"/>
	<path style="fill:#EBEBEB;" d="M116.18,409.2c-0.06,0-0.11-0.01-0.17-0.03c-0.27-0.09-0.42-0.39-0.33-0.67
		c0.04-0.12,1.07-3.02,4.54-3.45c0.29-0.04,0.55,0.17,0.58,0.46c0.04,0.29-0.17,0.55-0.46,0.58c-2.83,0.35-3.67,2.72-3.68,2.74
		C116.6,409.06,116.4,409.2,116.18,409.2z"/>
	<path style="fill:#EBEBEB;" d="M120.12,410.83c-0.03,0-0.06,0-0.1-0.01c-0.28-0.05-0.47-0.33-0.42-0.61
		c0.22-1.19,1.42-3.43,4.29-3.33c0.29,0.01,0.52,0.25,0.51,0.54c-0.01,0.29-0.24,0.54-0.54,0.51c-2.71-0.05-3.21,2.37-3.23,2.47
		C120.58,410.65,120.36,410.83,120.12,410.83z"/>
	<g>
		<path style="fill:#E35D50;" d="M203.72,176.83c-0.73,0-1.43-0.38-1.82-1.05c-0.58-1-0.24-2.29,0.77-2.87l60.4-34.87
			c1-0.58,2.29-0.24,2.87,0.77c0.58,1,0.24,2.29-0.77,2.87l-60.4,34.87C204.44,176.74,204.08,176.83,203.72,176.83z"/>
		<path style="fill:#3B56A6;" d="M203.72,190c-0.73,0-1.43-0.38-1.82-1.05c-0.58-1-0.24-2.29,0.77-2.87l86.04-49.67
			c1-0.58,2.29-0.24,2.87,0.77c0.58,1,0.24,2.29-0.77,2.87l-86.04,49.67C204.44,189.91,204.08,190,203.72,190z"/>
		<path style="fill:#5EC19B;" d="M299.26,148.01c-0.73,0-1.43-0.38-1.82-1.05c-0.58-1-0.24-2.29,0.77-2.87l59.52-34.36
			c1-0.58,2.29-0.24,2.87,0.77c0.58,1,0.24,2.29-1.42,2.37l-59.52,34.36C299.98,147.92,299.61,148.01,299.26,148.01z"/>
		<path style="fill:#ED2A91;" d="M203.72,203.17c-0.73,0-1.43-0.38-1.82-1.05c-0.58-1-0.24-2.29,0.77-2.87l76.77-44.32
			c1-0.58,2.29-0.24,2.87,0.77c0.58,1,0.24,2.29-0.77,2.87l-76.77,44.32C204.44,203.08,204.08,203.17,203.72,203.17z"/>
	</g>
	<path style="fill:#5EC19B;" d="M145.43,265.93c-0.73,0-1.43-0.38-1.82-1.05c-0.58-1-0.24-2.29,0.77-2.87l60.4-34.87
		c1-0.58,2.29-0.24,2.87,0.77c0.58,1,0.24,2.29-0.77,2.87l-60.4,34.87C146.14,265.84,145.78,265.93,145.43,265.93z"/>
	<path style="fill:#ED2A91;" d="M145.43,279.1c-0.73,0-1.43-0.38-1.82-1.05c-0.58-1-0.24-2.29,0.77-2.87l86.04-49.67
		c1-0.58,2.29-0.23,2.87,0.77c0.58,1,0.24,2.29-0.77,2.87l-86.04,49.67C146.14,279.01,145.78,279.1,145.43,279.1z"/>
	<path style="fill:#E35D50;" d="M274.38,220.45c-0.73,0-1.43-0.38-1.82-1.05c-0.58-1-0.24-2.29,0.77-2.87l59.52-34.36
		c1-0.58,2.29-0.24,2.87,0.77c0.58,1,0.24,2.29-0.77,2.87l-59.52,34.36C275.1,220.36,274.74,220.45,274.38,220.45z"/>
	<path style="fill:#7F52A1;" d="M145.43,292.27c-0.73,0-1.43-0.38-1.82-1.05c-0.58-1-0.24-2.29,0.77-2.87l76.77-44.32
		c1-0.58,2.29-0.23,2.87,0.77c0.58,1,0.24,2.29-0.77,2.87l-76.77,44.32C146.14,292.17,145.78,292.27,145.43,292.27z"/>
</g>
<g id="Clouds">
	<g>
		<path style="fill:#E7E7E6;" d="M189.51,83.24l-8.5,4.84v-3.01c0.01-0.21,0.03-0.43,0.03-0.64c0-0.21-0.01-0.41-0.03-0.61v-0.07
			l0,0c-0.31-3.99-3.33-5.52-7.01-3.39c-1.57,0.91-3.02,2.34-4.19,4.02c-0.83-5.42-5.25-7.37-10.59-4.29
			c-5.93,3.43-10.74,11.76-10.74,18.61l-0.01,6.45c0,1.04-0.55,2-1.45,2.52l-5,2.93c-2.21,1.29-3.56,3.66-3.56,6.22
			c0,2.29,2.48,3.71,4.46,2.57l46.47-26.85c2.51-1.45,4.06-4.13,4.06-7.03C193.44,83.51,191.27,82.24,189.51,83.24z"/>
		<path style="fill:#E7E7E6;" d="M112.33,93.24l-6.29,3.58v-2.23c0.01-0.16,0.02-0.32,0.02-0.47c0-0.16-0.01-0.3-0.02-0.45v-0.05
			l0,0c-0.23-2.95-2.46-4.08-5.19-2.51c-1.16,0.67-2.23,1.73-3.1,2.97c-0.61-4.01-3.88-5.45-7.83-3.17
			c-4.39,2.53-7.95,8.7-7.95,13.77l0,4.77c0,0.77-0.41,1.48-1.07,1.87l-3.7,2.17c-1.63,0.96-2.64,2.71-2.64,4.6
			c0,1.69,1.83,2.75,3.3,1.9l34.38-19.86c1.86-1.07,3-3.06,3-5.2C115.24,93.44,113.63,92.5,112.33,93.24z"/>
	</g>
</g>
</svg>
