<?xml version="1.0" encoding="utf-8"?>
<!-- Generator: Adobe Illustrator 26.0.1, SVG Export Plug-In . SVG Version: 6.00 Build 0)  -->
<svg version="1.1" id="Layer_1" xmlns="http://www.w3.org/2000/svg" xmlns:xlink="http://www.w3.org/1999/xlink" x="0px" y="0px"
	 viewBox="0 0 500 500" style="enable-background:new 0 0 500 500;" xml:space="preserve">
<style type="text/css">
	.st0{opacity:0.5;fill:#B9C9CE;enable-background:new    ;}
	.st1{fill:#B9C9CE;}
	.st2{fill:#4C6175;}
	.st3{opacity:0.5;fill:#4C6175;enable-background:new    ;}
	.st4{opacity:0.5;}
	.st5{opacity:0.3;fill:#4C6175;enable-background:new    ;}
	.st6{fill:#FEE789;}
	.st7{fill:#9E6070;}
	.st8{fill:#4C3257;}
	.st9{fill:#28182F;}
	.st10{fill:#3D2547;}
	.st11{fill:#E8E8E8;}
	.st12{opacity:0.5;fill:#28182F;enable-background:new    ;}
	.st13{fill:#B88C2D;}
	.st14{fill:#F6B918;}
	.st15{fill:#FEE9AB;}
	.st16{fill:#F79463;}
	.st17{opacity:0.5;fill:#3D2547;enable-background:new    ;}
	.st18{fill:#32404D;}
	.st19{fill:#E35D50;}
	.st20{fill:#1796D0;}
	.st21{fill:#5EC19B;}
</style>
<g id="OBJECTS">
	<ellipse id="SHADOW" class="st0" cx="246.4" cy="405" rx="146" ry="15.2"/>
	<g id="MINI_CABINET">
		<g>
			<path class="st1" d="M255.9,255.7c0,2.2-1.8,4-4,4h-50.5c-2.2,0-4-1.8-4-4v-50.7c0-2.2,1.8-4,4-4h50.5c2.2,0,4,1.8,4,4V255.7z"/>
		</g>
		<path class="st2" d="M251.9,201.1h-25.2v58.7h25.2c2.2,0,4-1.8,4-4v-50.7C255.9,202.9,254.1,201.1,251.9,201.1z"/>
		<rect x="201.4" y="205.1" class="st3" width="21" height="11.8"/>
		<rect x="201.4" y="219.7" class="st3" width="21" height="11.8"/>
		<rect x="201.2" y="234.4" class="st2" width="21" height="11.8"/>
		<rect x="201.4" y="248.6" class="st2" width="21" height="7.4"/>
	</g>
	<g>
		<g>
			<path class="st1" d="M347.4,389.1c0,2.2-1.8,4-4,4h-59c-2.2,0-4-1.8-4-4v-65.7c0-2.2,1.8-4,4-4h59c2.2,0,4,1.8,4,4V389.1z"/>
		</g>
		<g class="st4">
			<path class="st2" d="M313.9,389.1c0,2.2,1.8,4,4,4h25.5c2.2,0,4-1.8,4-4v-65.7c0-2.2-1.8-4-4-4h-25.5c-2.2,0-4,1.8-4,4V389.1z"/>
		</g>
		<rect x="284.7" y="324.4" class="st3" width="24.2" height="26.2"/>
		<rect x="284.7" y="354.6" class="st5" width="24.2" height="35"/>
		<path class="st6" d="M306.4,384.5c0,1.4-1.2,2.6-2.6,2.6c-1.4,0-2.6-1.2-2.6-2.6c0-1.4,1.2-2.6,2.6-2.6
			C305.2,381.9,306.4,383,306.4,384.5z"/>
		<rect x="287.1" y="356.2" class="st3" width="19.2" height="2.1"/>
		<rect x="287.1" y="360.2" class="st3" width="19.2" height="2.1"/>
	</g>
	<g id="DESK">
		<rect x="258.9" y="259.7" class="st7" width="113.5" height="8.3"/>
		<rect x="341.4" y="259.7" class="st8" width="31" height="8.3"/>
		<rect x="356.9" y="268.1" class="st8" width="3.8" height="136"/>
		<polygon class="st7" points="356.9,393.1 275,393.1 275,397.2 280.4,397.2 280.4,404 284.2,404 284.2,397.2 356.9,397.2 		"/>
		<rect x="300" y="397.2" class="st9" width="3.8" height="6.8"/>
		<rect x="333" y="268.1" class="st8" width="3.8" height="136"/>
	</g>
	<g>
		<path class="st8" d="M374.9,215.9c0,2.2-1.8,4-4,4h-13.1c-2.2,0-4-1.8-4-4v-65.7c0-2.2,1.8-4,4-4h13.1c2.2,0,4,1.8,4,4V215.9z"/>
	</g>
	<g>
		<path class="st10" d="M367.9,214.9c0,2.7-2.2,4.9-4.9,4.9h-92.3c-2.7,0-4.9-2.2-4.9-4.9v-63.8c0-2.7,2.2-4.9,4.9-4.9H363
			c2.7,0,4.9,2.2,4.9,4.9L367.9,214.9L367.9,214.9z"/>
	</g>
	<g>
		<path class="st11" d="M364.1,212.2c0,2.5-2,4.6-4.5,4.6h-85.5c-2.5,0-4.5-2.1-4.5-4.6v-58.4c0-2.5,2-4.6,4.5-4.6h85.5
			c2.5,0,4.5,2.1,4.5,4.6V212.2z"/>
	</g>
	<rect x="316.8" y="219.9" class="st10" width="7.5" height="39.8"/>
	<rect x="322.4" y="219.9" class="st8" width="3" height="39.8"/>
	<rect x="301" y="255.1" class="st10" width="38.3" height="4.6"/>
	<rect x="328" y="255.1" class="st8" width="11.3" height="4.6"/>
	<rect x="316.8" y="219.9" class="st12" width="8.5" height="1.7"/>
	<path class="st2" d="M223.1,394.7l0.7-3.9l-15.3-2.6l-0.8,3.6c0,0-3.2,10.7,0,12.2c3.2,1.5,23.7,1,24.9,0
		C233.8,403.1,223.1,394.7,223.1,394.7z"/>
	<path class="st13" d="M215.5,320.1l-14.2,64.3c0,0,13,10.3,31.3,4.9c11-29.3,25.3-71,15.3-73.5c-10-2.4-29-1.3-29-1.3L215.5,320.1z
		"/>
	<path class="st2" d="M235.9,391.8c0,0-3.2,10.7,0,12.2c3.2,1.5,28.4,1,29.7,0s-14.2-9.3-14.2-9.3v-2.3
		C251.4,392.4,245.9,393.5,235.9,391.8z"/>
	<path class="st14" d="M209.9,287.6c0,0,53.8,4.5,59.8,18.5S258,390,258,390s-15.3,8.8-32.3-3.3c4.7-16.7,17.7-66.6,16.7-68.3
		c-1-1.7-82,2.6-91.5-2.7c-9.5-5.3-5.9-22.7,0.5-29.7C161.7,279.1,188.4,295.1,209.9,287.6z"/>
	<path class="st15" d="M197.4,201.1c0,0,8.4,2.5,9.5,8c1,5.5,14,45.4,67,47c0,0,2.5,4.5,0,8c-3.5,4-37.2,14.5-66.4,2
		c-0.7,17,2.4,21.5,2.4,21.5s-18,11.5-39.5,9c-21.5-2.5-19.4-8.5-19.4-8.5s0.9-60.7,7.2-72.1C165.9,204.1,182.9,196.1,197.4,201.1z"
		/>
	<path class="st16" d="M206.5,171.8c0,0,3.7,26.3-14.9,23c-18.3-6.7-15.6-16.7-15.6-16.7l12.3-13
		C188.4,165.1,205.3,157.2,206.5,171.8z"/>
	<path class="st7" d="M180.7,145.1c10.7,0,28.7,1.3,26.7,24c-1.3,6-4,6.5-5,0c-2,6.5-10.5,13.5-15,9c0-3.5-6.8-2.6-7.7,0.9
		c-0.8,3.6,3.7,9.1,8.7,6.6c1,6.5,4.5,12.5,9,15.5c-7-0.5-12,7.5-11,15c-2,8-30.5,3-33-4.5s-7.5-55.5,13-63
		C172.4,145.1,180.7,145.1,180.7,145.1z"/>
	<path class="st16" d="M273.9,256c0,0,16.5-3.6,18.2,3.7c-6.7,0-17.1,0-17.1,0L273.9,256z"/>
	<g id="CHAIRV">
		<path class="st2" d="M127.9,212.6c-4.2,5.7-8.5,77,0,83.5s61,4,63.5,0c2.5-4,10.5-80.5,0-85.5
			C184.1,207.1,134.4,203.7,127.9,212.6z"/>
		<path class="st17" d="M191.4,210.6c0,0-6.7-1.5-7.3,6.8s-12.4,84.7,7.3,78.7C193.9,292.1,201.9,215.6,191.4,210.6z"/>
		<path class="st2" d="M130.6,315.1c-1.5,2-5.8,13.2,2.5,13.9s94.8,5.1,97.2,3.7c2.5-1.4,4-13.7-1-15.2
			C224.4,316.1,132.1,313.2,130.6,315.1z"/>
		<path class="st17" d="M229.4,317.6c-1.7-0.5-13-1.1-27.5-1.7c0,0-7.8,9.7,0,16.6c15.4,0.6,27.6,0.8,28.5,0.3
			C232.9,331.3,234.4,319.1,229.4,317.6z"/>
		<path class="st2" d="M183.1,331.7c0,0,0,21.6,0,23.4s-2.7,3.2-2.7,3.2h-9.7c0,0-2.1-0.8-2.1-2.8s0-24.8,0-24.8
			S179.4,329,183.1,331.7z"/>
		<path class="st2" d="M170.7,358.3v33.5c0,0,6.5,1.2,9.7,0c0-12.5,0-33.5,0-33.5H170.7z"/>
		<path class="st18" d="M207.9,398.8c0-1.8-14.9-8.2-32.4-8.2s-34.4,6.8-32.9,8.2C150.6,398.8,207.9,398.8,207.9,398.8z"/>
		<path class="st9" d="M207.3,404c0,2.3-1.9,4.2-4.2,4.2s-4.2-1.9-4.2-4.2s1.9-4.2,4.2-4.2S207.3,401.7,207.3,404z"/>
		<path class="st9" d="M151.5,404c0,2.3-1.9,4.2-4.2,4.2c-2.3,0-4.2-1.9-4.2-4.2s1.9-4.2,4.2-4.2C149.6,399.8,151.5,401.7,151.5,404
			z"/>
		<path class="st9" d="M179.8,404c0,2.3-1.9,4.2-4.2,4.2s-4.2-1.9-4.2-4.2s1.9-4.2,4.2-4.2S179.8,401.7,179.8,404z"/>
		<path class="st17" d="M183.1,331.7c0,0,0,21.6,0,23.4s-2.7,3.2-2.7,3.2h-9.7c0,0-2.1-0.8-2.1-2.8s0-24.8,0-24.8
			S179.4,329,183.1,331.7z"/>
		<path class="st1" d="M145.1,275.1c-4.7,2.5-2,50.7,3.3,56c6.7,6.7,20,5,22.3,0c-2.3-1.3-9.5,1.3-8.9-31.7
			c0.9-17.6,1.2-23.6-0.4-24.3S148.8,273.1,145.1,275.1z"/>
		<path class="st3" d="M170.7,331.1c-2.3-1.3-9.5,1.3-8.9-31.7c0.9-17.6,1.2-23.6-0.4-24.3c-0.6-0.2-2.4-0.6-4.7-0.8
			c0,20.5-6,62.6,12,59l0,0C169.6,332.6,170.3,331.9,170.7,331.1z"/>
	</g>
</g>
<g id="DESIGNED_BY_FREEPIK">
	<rect x="-111" y="115" class="st14" width="28.2" height="47.9"/>
	<g>
		<g>
			<rect x="272.6" y="158.5" class="st19" width="30.6" height="3.3"/>
			<rect x="308.2" y="158.5" class="st20" width="17" height="3.3"/>
			<rect x="330" y="158.5" class="st21" width="19.5" height="3.3"/>
		</g>
		<g>
			<rect x="272.6" y="165.2" class="st20" width="17" height="3.3"/>
			<rect x="294.5" y="165.2" class="st21" width="23.5" height="3.3"/>
		</g>
		<g>
			<rect x="272.6" y="171.9" class="st20" width="30.6" height="3.3"/>
			<rect x="308.2" y="171.9" class="st19" width="28.1" height="3.3"/>
			<rect x="341.2" y="171.9" class="st21" width="19.6" height="3.3"/>
		</g>
		<g>
			<rect x="272.6" y="178.6" class="st21" width="23.1" height="3.3"/>
			<rect x="300.7" y="178.6" class="st20" width="25.3" height="3.3"/>
		</g>
		<g>
			<rect x="272.6" y="185.2" class="st19" width="30.6" height="3.3"/>
			<rect x="308.2" y="185.2" class="st21" width="23.2" height="3.3"/>
			<rect x="336.3" y="185.2" class="st20" width="13.3" height="3.3"/>
		</g>
		<g>
			<rect x="272.6" y="191.9" class="st20" width="17" height="3.3"/>
			<rect x="294.5" y="191.9" class="st21" width="23.5" height="3.3"/>
		</g>
		<g>
			<rect x="272.6" y="198.6" class="st20" width="30.6" height="3.3"/>
			<rect x="308.2" y="198.6" class="st19" width="28.1" height="3.3"/>
			<rect x="341.2" y="198.6" class="st21" width="19.6" height="3.3"/>
		</g>
		<g>
			<rect x="272.6" y="205.2" class="st21" width="23.1" height="3.3"/>
			<rect x="300.7" y="205.2" class="st20" width="25.3" height="3.3"/>
		</g>
	</g>
</g>
</svg>
