<?xml version="1.0" encoding="utf-8"?>
<!-- Generator: Adobe Illustrator 26.0.1, SVG Export Plug-In . SVG Version: 6.00 Build 0)  -->
<svg version="1.1" id="Layer_1" xmlns="http://www.w3.org/2000/svg" xmlns:xlink="http://www.w3.org/1999/xlink" x="0px" y="0px"
	 viewBox="0 0 500 500" style="enable-background:new 0 0 500 500;" xml:space="preserve">
<style type="text/css">
	.st0{fill:#233F52;}
	.st1{fill:#042A37;}
	.st2{fill:#375060;}
	.st3{fill:#FF917F;}
	.st4{fill:#FFB3A2;}
	.st5{fill:none;stroke:#A93600;stroke-width:5;stroke-linecap:round;stroke-linejoin:round;stroke-miterlimit:10;}
	.st6{fill:#F8D05C;}
	.st7{fill:#F8B903;}
	.st8{fill:#FFFFFF;}
	.st9{fill:none;stroke:#EE826E;stroke-width:3;stroke-linecap:round;stroke-linejoin:round;stroke-miterlimit:10;}
	.st10{fill:#CFE4E9;}
	.st11{fill:#A8CED7;}
	.st12{fill:#DDDEE0;}
	.st13{fill:#CECFD2;}
	.st14{fill:#E45C50;}
	.st15{fill:#1495D0;}
	.st16{fill:#5DC09B;}
	.st17{fill:#FFCCC1;stroke:#233F52;stroke-width:4.0003;stroke-miterlimit:10.0006;}
	.st18{fill:#FFCCC1;stroke:#233F52;stroke-width:4;stroke-miterlimit:9.9999;}
	.st19{fill:none;stroke:#233F52;stroke-width:4;stroke-linecap:round;stroke-linejoin:round;stroke-miterlimit:10;}
</style>
<g id="OBJECTS">
	<g>
		<g>
			<path class="st0" d="M134.5,218.9c0,0,0.1,34.7-29.1,44.6c-20.1,6.8-31.7-1.9-36.9-8.1c-1.8-2.1-0.4-5.3,2.3-5.6l5-0.6
				c0,0-8-41.4-0.8-59.7c10.7-27.1,52.1-40.4,78.3-11.1l6.2-2.4c2.1-0.8,4.3,0.5,4.7,2.7C165.8,189,166.7,215.6,134.5,218.9z"/>
			<path class="st0" d="M162.9,249.7l-5-0.6c0,0,7.4-38.6,1.5-57.7c0,0-82.6,25.1-60.2,27.4c0,0-0.1,34.7,29.1,44.6
				c20.1,6.8,31.6-1.9,36.9-8.1C166.9,253.3,165.6,250.1,162.9,249.7z"/>
			<g>
				<g>
					<g>
						<path class="st0" d="M182.6,497.4V313.2c0-6.9-2.8-13.1-7.3-17.7c-4.5-4.5-10.8-7.3-17.7-7.3H75.8c-6.9,0-13.2,2.8-17.7,7.3
							c-4.5,4.5-7.3,10.8-7.3,17.7v184.2H182.6z"/>
						<rect x="50.8" y="457.2" class="st1" width="131.8" height="44.8"/>
						<rect x="50.8" y="452.5" class="st2" width="131.8" height="4.7"/>
						<g>
							<g>
								<g>
									<path class="st3" d="M93,230.1c0,3-1.2,5.7-3.2,7.6c-1.9,1.9-4.6,3.1-7.6,3.1s-5.7-1.2-7.6-3.1c-1.9-1.9-3.2-4.6-3.2-7.6
										s1.2-5.7,3.2-7.6c1.9-1.9,4.6-3.1,7.6-3.1s5.7,1.2,7.6,3.1S93,227.2,93,230.1z"/>
									<path class="st3" d="M161.5,230.1c0,3-1.2,5.7-3.1,7.6s-4.6,3.1-7.6,3.1s-5.7-1.2-7.6-3.1s-3.1-4.6-3.1-7.6
										s1.2-5.7,3.1-7.6s4.6-3.1,7.6-3.1s5.7,1.2,7.6,3.1S161.5,227.2,161.5,230.1z"/>
								</g>
								<path class="st0" d="M159.1,208.9c0,12-4.8,22.9-12.5,30.8c-7.7,7.9-18.4,12.7-30.1,12.7s-22.4-4.9-30.1-12.7
									c-7.7-7.9-12.5-18.7-12.5-30.8s4.8-22.9,12.5-30.7c7.7-7.9,18.4-12.7,30.1-12.7s22.4,4.9,30.1,12.7S159.1,196.9,159.1,208.9
									z"/>
								<path class="st3" d="M81.8,214.4v36.9v36.9c5,3.3,10.5,5.9,16.3,7.7s12,2.7,18.4,2.7c6.4,0,12.6-1,18.4-2.7
									c5.8-1.8,11.3-4.4,16.3-7.6v-36.9v-36.9h-34.7L81.8,214.4L81.8,214.4z"/>
								<path class="st4" d="M120.5,276.1h-4h-4c-8.5,0-16.1-3.4-21.7-9s-9-13.2-9-21.7v-21.5v-21.5c0-8.5,3.4-16.1,9-21.7
									c5.6-5.6,13.2-9,21.7-9h4h4c8.5,0,16.1,3.4,21.7,9s9,13.2,9,21.7v21.5v21.5c0,8.5-3.4,16.1-9,21.7
									C136.7,272.7,129,276.1,120.5,276.1z"/>
								<path class="st5" d="M90.9,224.8"/>
								<path class="st0" d="M89.8,215.7c-0.4,0-0.9-0.1-1.3-0.3s-0.8-0.4-1.2-0.8c-0.7-0.7-1-1.6-1-2.5c0-0.9,0.3-1.8,1-2.5
									c1.6-1.6,3.4-2.8,5.4-3.6c2-0.8,4.2-1.3,6.4-1.3c2.2,0,4.3,0.4,6.2,1.2c2,0.8,3.8,1.9,5.3,3.4c0.7,0.7,1.1,1.6,1.1,2.5
									c0,0.9-0.3,1.8-1,2.5c-0.7,0.7-1.6,1.1-2.5,1.1c-0.9,0-1.8-0.3-2.5-1c-0.9-0.9-2-1.5-3.1-2c-1.1-0.5-2.4-0.7-3.6-0.7
									c-1.3,0-2.6,0.2-3.8,0.7c-1.2,0.5-2.2,1.2-3.2,2.1c-0.3,0.3-0.7,0.6-1.2,0.8C90.7,215.6,90.2,215.7,89.8,215.7z"/>
								<path class="st0" d="M124.3,215.7c-0.4,0-0.9-0.1-1.3-0.3s-0.8-0.4-1.2-0.8c-0.7-0.7-1-1.6-1-2.5c0-0.9,0.3-1.8,1-2.5
									c1.6-1.6,3.4-2.8,5.4-3.6c2-0.8,4.2-1.3,6.4-1.3c2.2,0,4.3,0.4,6.2,1.2c2,0.8,3.8,1.9,5.3,3.4c0.7,0.7,1.1,1.6,1.1,2.5
									c0,0.9-0.3,1.8-1,2.5c-0.7,0.7-1.6,1.1-2.5,1.1c-0.9,0-1.8-0.3-2.5-1c-0.9-0.9-2-1.5-3.1-2c-1.1-0.5-2.4-0.7-3.6-0.7
									c-1.3,0-2.6,0.2-3.8,0.7c-1.2,0.5-2.2,1.2-3.2,2.1c-0.3,0.3-0.7,0.6-1.2,0.8C125.2,215.6,124.8,215.7,124.3,215.7z"/>
							</g>
							<path class="st3" d="M119.8,236.7H116h-3.8c-0.8,0-1.5-0.4-1.9-1c-0.4-0.6-0.5-1.4-0.2-2.1l2.8-7.2l2.8-7.2
								c0.2-0.4,0.5-0.6,0.8-0.6s0.7,0.2,0.8,0.6l2.3,7.2l2.3,7.2c0.2,0.7,0.1,1.5-0.3,2C121.2,236.3,120.6,236.7,119.8,236.7z"/>
						</g>
					</g>
					<g>
						<g>
							<g>
								<g>
									<path class="st2" d="M186.1,303.9c-4-8.9-14.1-15-25.9-15.6h-4.4c7,0,13.1,3.1,15.4,7.7c3,5.9,5.8,24.1,7.9,41
										c5.8-1.8,11.7-3.3,17.7-4.8L186.1,303.9z"/>
								</g>
							</g>
							<g>
								<path class="st2" d="M47.7,303.9c4-8.9,14.1-15,25.9-15.6H78c-7,0-13.1,3.1-15.4,7.7c-3,5.9-6.2,24.1-8.3,41l-14.7-3.8
									L47.7,303.9z"/>
							</g>
						</g>
					</g>
					<path class="st0" d="M103.7,223.8c0,1.3-0.5,2.4-1.3,3.2c-0.8,0.8-2,1.3-3.2,1.3c-1.3,0-2.4-0.5-3.2-1.3
						c-0.8-0.8-1.3-2-1.3-3.2c0-1.3,0.5-2.4,1.3-3.2c0.8-0.8,2-1.3,3.2-1.3c1.3,0,2.4,0.5,3.2,1.3S103.7,222.5,103.7,223.8z"/>
					<path class="st0" d="M138.2,223.8c0,1.3-0.5,2.4-1.3,3.2s-2,1.3-3.2,1.3c-1.3,0-2.4-0.5-3.2-1.3s-1.3-2-1.3-3.2
						c0-1.3,0.5-2.4,1.3-3.2s2-1.3,3.2-1.3c1.3,0,2.4,0.5,3.2,1.3C137.7,221.4,138.2,222.5,138.2,223.8z"/>
				</g>
				<path class="st4" d="M182.6,394.6v50.8c0,6.5-5.3,11.8-11.8,11.8l11.8,34c0,0,20.7-24,24-92.9c0.1-1.7,0.1-3.4,0.1-5.2
					c-1.1-0.9-2.2-1.6-3.4-2.2C197.5,387.6,188.6,389.3,182.6,394.6z"/>
				<path class="st3" d="M179.1,337l3.5,49.6v8c5.9-5.3,14.9-7,20.7-3.8c1.2,0.6,2.3,1.4,3.4,2.2c-0.4-24.3-9.9-60.8-9.9-60.8
					L179.1,337z"/>
				<path class="st3" d="M50.8,388.1v-1.5l3.5-49.6l-14.7-3.8c0,0-8.2,33.5-12.8,56.6C34.2,385.5,42.7,384.2,50.8,388.1z"/>
			</g>
			<g>
				<path class="st6" d="M155.4,439.3l-65.8,13c-2.1,0.4-4.2-1-4.6-3.1l-19.3-97.7c-0.4-2.1,1-4.2,3.1-4.6l65.8-13
					c2.1-0.4,4.2,1,4.6,3.1l19.3,97.7C158.9,436.8,157.5,438.9,155.4,439.3z"/>
				<path class="st7" d="M155.4,439.3l-65.8,13c-2.1,0.4-4.2-1-4.6-3.1l0,0c-0.4-2.1,1-4.2,3.1-4.6l65.8-13c2.1-0.4,4.2,1,4.6,3.1
					l0,0C158.9,436.8,157.5,438.9,155.4,439.3z"/>
			</g>
			<ellipse class="st8" cx="112" cy="393" rx="8.8" ry="8.8"/>
			<path class="st4" d="M126.2,364.6l-13.4,2.7l9-7.9c0.9-0.9,0-2.6-1.2-2.2l-17.9,5.8l0.1-7.2c0-0.9-1.1-1.5-1.6-0.8l-5.9,6.9
				c-2.7,3.2-6.2,5.5-10.1,6.8l-6.7,2.4l-45,13.8c-8.4,2.9-12.6,12.7-9.4,22s12.5,14.5,20.9,11.7l86.5-30.4c1.1-0.5,0.8-2.3-0.4-2.5
				l-11.4-0.8l10.4-7.2c1-0.6,0.5-2.4-0.7-2.4l-12.5,0.8l10.2-8.9C128.1,366.2,127.4,364.5,126.2,364.6z"/>
			<path class="st0" d="M158.6,202c0,0-27,19.7-72.3-5.6c0,0,1.6,9.7-8.3,18c0,0-6.2-42.4,33.9-45.2C152,166.3,158.6,202,158.6,202z
				"/>
			<path class="st9" d="M133.6,240.1c-3.9,5.8-10.4,9.6-17.9,9.6c-6.8,0-12.9-3.2-16.8-8.1"/>
		</g>
		<g>
			<g>
				<g>
					<path class="st0" d="M447.4,497.1V301.6c0-7.3-3-14-7.8-18.8c-4.8-4.8-11.4-7.8-18.8-7.8H334c-7.3,0-14,3-18.8,7.8
						c-4.8,4.8-7.8,11.4-7.8,18.8v195.5L447.4,497.1L447.4,497.1z"/>
					<rect x="307.5" y="454.4" class="st1" width="139.9" height="47.6"/>
					<rect x="307.5" y="449.5" class="st6" width="139.9" height="5"/>
					<g>
						<rect x="307.5" y="393" class="st6" width="139.9" height="5"/>
						<rect x="307.5" y="378.4" class="st6" width="139.9" height="5"/>
						<rect x="307.5" y="363.8" class="st6" width="139.9" height="5"/>
						<rect x="307.5" y="349.1" class="st6" width="139.9" height="5"/>
					</g>
					<path class="st6" d="M343.3,291c0.1,0,0.1,0.1,0.2,0.1c13.7,7.1,29.6,9.8,44.5,7.5c13.6-2,26.4-8.2,36-18.8
						c1.4-1.5,0.6-4.1-1.5-4.4c0,0,0,0,0,0c-1.5-0.2-3-0.4-4.6-0.4h-39.9H338c-1.5,0-2.9,0.1-4.4,0.3c-0.1,0-0.3,0-0.4,0.1
						c-1.9,0.3-2.8,2.5-1.8,4.1c1.2,1.8,2.5,3.4,3.9,5C337.7,287,340.3,289.1,343.3,291z"/>
					<g>
						<g>
							<g>
								<path class="st3" d="M352.3,213.4c0,3.1-1.3,6-3.3,8.1c-2.1,2.1-4.9,3.3-8.1,3.3s-6-1.3-8.1-3.3s-3.3-4.9-3.3-8.1
									c0-3.1,1.3-6,3.3-8.1c2.1-2.1,4.9-3.3,8.1-3.3s6,1.3,8.1,3.3C351,207.4,352.3,210.2,352.3,213.4z"/>
								<path class="st3" d="M425,213.4c0,3.1-1.3,6-3.3,8.1c-2.1,2.1-4.9,3.3-8.1,3.3s-6-1.3-8.1-3.3c-2.1-2.1-3.3-4.9-3.3-8.1
									c0-3.1,1.3-6,3.3-8.1c2.1-2.1,4.9-3.3,8.1-3.3s6,1.3,8.1,3.3C423.7,207.4,425,210.2,425,213.4z"/>
							</g>
							<path class="st0" d="M422.5,190.8c0,12.8-5.1,24.3-13.2,32.6c-8.2,8.4-19.5,13.5-32,13.5s-23.8-5.2-32-13.5
								S332,203.6,332,190.8s5.1-24.3,13.2-32.6c8.2-8.4,19.5-13.5,32-13.5s23.8,5.2,32,13.5C417.4,166.5,422.5,178.1,422.5,190.8z"
								/>
							<path class="st0" d="M351.5,159.4c0,0-15.2-1.4-21.8,14.6c-6.6,16,6.5,36.4,6.5,36.4L351.5,159.4z"/>
							<path class="st3" d="M340.4,196.7v39.2V275c5.3,3.5,11.1,6.2,17.3,8.1s12.8,2.9,19.6,2.9c6.8,0,13.4-1,19.5-2.9
								c6.2-1.9,12-4.6,17.3-8.1v-39.2v-39.2h-36.8L340.4,196.7L340.4,196.7z"/>
							<path class="st4" d="M381.5,262.2h-4.3h-4.3c-9,0-17.1-3.6-23-9.5c-5.9-5.9-9.5-14-9.5-23v-22.8V184c0-9,3.6-17.1,9.5-23
								c5.9-5.9,14-9.5,23-9.5h4.3h4.3c9,0,17.1,3.6,23,9.5c5.9,5.9,9.5,14,9.5,23v22.8v22.8c0,9-3.6,17.1-9.5,23
								C398.6,258.6,390.5,262.2,381.5,262.2z"/>
							<path class="st5" d="M350,207.7"/>
							<path class="st0" d="M348.9,198.1c-0.5,0-1-0.1-1.4-0.3c-0.5-0.2-0.9-0.5-1.2-0.8c-0.7-0.7-1.1-1.7-1.1-2.6s0.4-1.9,1.1-2.6
								c1.7-1.7,3.6-3,5.8-3.9s4.5-1.4,6.8-1.4c2.3,0,4.5,0.4,6.6,1.3s4,2.1,5.7,3.6c0.8,0.7,1.1,1.6,1.2,2.6c0,0.9-0.3,1.9-1,2.7
								s-1.7,1.1-2.6,1.2c-1,0-1.9-0.3-2.7-1c-1-0.9-2.1-1.6-3.3-2.1s-2.5-0.7-3.9-0.7c-1.4,0-2.7,0.3-4,0.8
								c-1.2,0.5-2.4,1.3-3.4,2.3c-0.4,0.4-0.8,0.6-1.2,0.8C349.8,198,349.3,198.1,348.9,198.1z"/>
							<path class="st0" d="M385.5,198.1c-0.5,0-1-0.1-1.4-0.3c-0.5-0.2-0.9-0.5-1.2-0.8c-0.7-0.7-1.1-1.7-1.1-2.6s0.4-1.9,1.1-2.6
								c1.7-1.7,3.6-3,5.8-3.9s4.5-1.4,6.8-1.4c2.3,0,4.5,0.4,6.6,1.3s4,2.1,5.7,3.6c0.8,0.7,1.1,1.6,1.2,2.6c0,0.9-0.3,1.9-1,2.7
								s-1.7,1.1-2.6,1.2c-1,0-1.9-0.3-2.7-1c-1-0.9-2.1-1.6-3.3-2.1s-2.5-0.7-3.9-0.7c-1.4,0-2.7,0.3-4,0.8
								c-1.2,0.5-2.4,1.3-3.4,2.3c-0.4,0.4-0.8,0.6-1.2,0.8C386.5,198,386,198.1,385.5,198.1z"/>
						</g>
						<path class="st8" d="M395.4,231.4h-18.2H359c-0.4,0-0.8,0.2-1,0.5c-0.2,0.3-0.3,0.7-0.2,1.1c0.5,1.9,1.9,5.7,4.8,8.9
							c3,3.2,7.5,5.9,14.6,5.6c7.7-0.3,12.3-2.9,15.1-6s3.8-6.6,4.3-8.5c0.1-0.4,0-0.8-0.2-1.1C396.2,231.6,395.8,231.4,395.4,231.4
							z"/>
						<path class="st3" d="M380.7,220.3h-4h-4c-0.9,0-1.6-0.4-2-1.1c-0.4-0.6-0.6-1.4-0.2-2.2l3-7.6l3-7.6c0.2-0.4,0.5-0.6,0.9-0.6
							c0.4,0,0.7,0.2,0.9,0.6l2.4,7.6l2.4,7.6c0.2,0.8,0.1,1.6-0.4,2.1C382.2,219.9,381.5,220.3,380.7,220.3z"/>
					</g>
				</g>
				<g>
					<g>
						<g>
							<path class="st6" d="M451.1,291.7c-4.2-9.5-15-16-27.5-16.6h-4.7c7.5,0,13.9,3.3,16.4,8.2c3.2,6.3,6.2,25.6,8.4,43.6
								c6.2-1.9,12.5-3.5,18.8-5.1L451.1,291.7z"/>
						</g>
						<g>
							<path class="st2" d="M304.2,291.7c4.2-9.5,15-16,27.5-16.6h4.7c-7.5,0-13.9,3.3-16.4,8.2c-3.2,6.3-6.2,25.6-8.4,43.6
								c-6.2-1.9-12.5-3.5-18.8-5.1L304.2,291.7z"/>
						</g>
					</g>
				</g>
				<path class="st0" d="M363.6,206.7c0,1.4-0.5,2.6-1.4,3.4s-2.1,1.4-3.4,1.4c-1.4,0-2.6-0.6-3.4-1.4c-0.9-0.9-1.4-2.1-1.4-3.4
					s0.5-2.6,1.4-3.4s2.1-1.4,3.4-1.4s2.6,0.6,3.4,1.4C363,204.1,363.6,205.3,363.6,206.7z"/>
				<path class="st0" d="M400.2,206.7c0,1.4-0.5,2.6-1.4,3.4s-2.1,1.4-3.4,1.4s-2.6-0.6-3.4-1.4c-0.9-0.9-1.4-2.1-1.4-3.4
					s0.5-2.6,1.4-3.4s2.1-1.4,3.4-1.4s2.6,0.6,3.4,1.4C399.7,204.1,400.2,205.3,400.2,206.7z"/>
			</g>
			<path class="st4" d="M447.4,388v53.9c0,6.9-5.6,12.5-12.5,12.5l12.5,36.1c0,0,22-25.5,25.5-98.6c0.1-1.8,0.1-3.6,0.1-5.5
				c-1.1-0.9-2.3-1.7-3.6-2.4C463.2,380.6,453.7,382.3,447.4,388z"/>
			<path class="st3" d="M443.7,326.9l3.7,52.6v8.5c6.3-5.6,15.8-7.4,22-4c1.3,0.6,2.5,1.4,3.6,2.4c-0.4-25.8-10.5-64.6-10.5-64.6
				L443.7,326.9z"/>
			<path class="st3" d="M307.4,381.1v-1.6l3.7-52.6l-18.8-5.1c0,0-9.2,35.5-10.4,61.1C289.8,378.4,298.9,377,307.4,381.1z"/>
			<path class="st4" d="M307.4,441.9v-60.8c-8.6-4.1-17.6-2.8-25.4,1.8c-0.1,3.2-0.2,6.2,0,9c3.5,73.1,25.5,98.6,25.5,98.6
				l12.5-36.1C313,454.4,307.4,448.8,307.4,441.9z"/>
			<path class="st0" d="M340.4,169.1c0,0,12.2,14.6,37.5,15s55-18.4,47.1-41c-7.3-20.9-39.5-21.9-43.1,4
				C381.8,147.1,358.6,142.3,340.4,169.1z"/>
		</g>
	</g>
	<g>
		<g>
			<path class="st0" d="M316.9,117.7c0-14.4-11.7-26-26-26c-14.4,0-26,11.7-26,26c0,6.6,2.5,12.7,6.6,17.3
				c-2.5,3.7-3.9,8.2-3.9,12.9c0,0.2,0,0.4,0,0.6c-10,3.4-17.2,12.8-17.2,23.9c0,13.9,11.3,25.2,25.2,25.2
				c13.9,0,25.2-11.3,25.2-25.2c0-1.1-0.1-2.1-0.2-3.2c8.1-3.7,13.8-11.9,13.8-21.4c0-4.8-1.5-9.3-4-13.1
				C314.5,130.3,316.9,124.3,316.9,117.7z"/>
			<path class="st0" d="M232.8,148.6c0-0.2,0-0.4,0-0.6c0-4.8-1.4-9.2-3.9-12.9c4.1-4.6,6.6-10.7,6.6-17.3c0-14.4-11.7-26-26-26
				s-26,11.7-26,26c0,6.6,2.4,12.6,6.5,17.2c-2.5,3.7-4,8.2-4,13.1c0,9.5,5.7,17.7,13.8,21.4c-0.1,1-0.2,2.1-0.2,3.2
				c0,13.9,11.3,25.2,25.2,25.2c13.9,0,25.2-11.3,25.2-25.2C250,161.4,242.8,151.9,232.8,148.6z"/>
		</g>
	</g>
	<g>
		<path class="st6" d="M330.9,496.3V270.8c0-8.5-3.4-16.1-9-21.6c-5.5-5.5-13.2-9-21.6-9H200.1c-8.4,0-16.1,3.4-21.6,9
			c-5.5,5.5-9,13.2-9,21.6v225.5H330.9z"/>
		<rect x="169.5" y="447.1" class="st0" width="161.4" height="54.9"/>
		<rect x="169.5" y="430.6" class="st7" width="161.4" height="16.5"/>
		<path class="st7" d="M210.2,258.6c0.1,0,0.2,0.1,0.3,0.1c15.8,8.2,34.1,11.3,51.3,8.7c15.6-2.4,30.4-9.4,41.5-21.7
			c1.6-1.8,0.7-4.7-1.7-5.1c0,0,0,0,0,0c-1.7-0.3-3.5-0.4-5.3-0.4h-46.1h-46.1c-1.7,0-3.4,0.1-5,0.4c-0.1,0-0.3,0.1-0.5,0.1
			c-2.2,0.4-3.2,2.9-2,4.7c1.4,2,2.9,4,4.5,5.8C203.8,254,206.8,256.5,210.2,258.6z"/>
		<g>
			<g>
				<g>
					<path class="st3" d="M221.2,169.1c0,3.6-1.5,6.9-3.9,9.3c-2.4,2.4-5.7,3.9-9.3,3.9c-3.6,0-6.9-1.5-9.3-3.9
						c-2.4-2.4-3.9-5.7-3.9-9.3c0-3.6,1.5-6.9,3.9-9.3c2.4-2.4,5.7-3.9,9.3-3.9c3.6,0,6.9,1.5,9.3,3.9
						C219.7,162.2,221.2,165.5,221.2,169.1z"/>
					<path class="st3" d="M305,169.1c0,3.6-1.5,6.9-3.9,9.3c-2.4,2.4-5.7,3.9-9.3,3.9c-3.6,0-6.9-1.5-9.3-3.9
						c-2.4-2.4-3.9-5.7-3.9-9.3c0-3.6,1.5-6.9,3.9-9.3c2.4-2.4,5.7-3.9,9.3-3.9c3.6,0,6.9,1.5,9.3,3.9
						C303.5,162.2,305,165.5,305,169.1z"/>
				</g>
				<path class="st0" d="M302.1,143.1c0,14.7-5.8,28-15.3,37.6s-22.5,15.6-36.9,15.6s-27.5-6-36.9-15.6
					c-9.4-9.6-15.3-22.9-15.3-37.6s5.8-28,15.3-37.6c9.4-9.6,22.5-15.6,36.9-15.6c14.4,0,27.5,6,36.9,15.6
					C296.3,115.1,302.1,128.4,302.1,143.1z"/>
				<path class="st3" d="M207.4,149.8V195v45.2c6.1,4,12.8,7.2,19.9,9.4s14.7,3.4,22.6,3.4c7.8,0,15.4-1.2,22.5-3.3
					c7.1-2.2,13.8-5.4,19.9-9.4V195v-45.2h-42.5L207.4,149.8L207.4,149.8z"/>
				<path class="st4" d="M254.8,225.4h-4.9H245c-10.4,0-19.8-4.2-26.6-11c-6.8-6.8-11-16.2-11-26.6v-26.3v-26.3
					c0-10.4,4.2-19.8,11-26.6c6.8-6.8,16.2-11,26.6-11h4.9h4.9c10.4,0,19.8,4.2,26.5,11c6.8,6.8,11,16.2,11,26.6v26.3v26.3
					c0,10.4-4.2,19.8-11,26.6C274.6,221.2,265.2,225.4,254.8,225.4z"/>
				<path class="st5" d="M218.5,162.6"/>
				<path class="st3" d="M246.9,215.9v-2.2v-2.2c0-0.8,0.3-1.6,0.9-2.1c0.6-0.6,1.3-0.9,2.1-0.9l0,0l0,0c0.8,0,1.6,0.3,2.1,0.9
					c0.6,0.6,0.9,1.3,0.9,2.1v2.2v2.2c0,0.8-0.3,1.6-0.9,2.1c-0.6,0.6-1.3,0.9-2.1,0.9l0,0l0,0c-0.8,0-1.6-0.3-2.1-0.9
					C247.2,217.5,246.9,216.8,246.9,215.9z"/>
				<path class="st0" d="M217.2,151.5c-0.6,0-1.1-0.1-1.6-0.3c-0.5-0.2-1-0.5-1.4-0.9c-0.8-0.8-1.3-1.9-1.3-3c0-1.1,0.4-2.2,1.3-3
					c1.9-1.9,4.2-3.4,6.7-4.5c2.5-1,5.1-1.6,7.9-1.6c2.6,0,5.2,0.5,7.6,1.5c2.4,1,4.6,2.4,6.5,4.2c0.9,0.8,1.3,1.9,1.3,3
					c0,1.1-0.4,2.2-1.2,3.1c-0.8,0.9-1.9,1.3-3,1.3c-1.1,0-2.2-0.4-3.1-1.2c-1.1-1.1-2.4-1.9-3.8-2.4c-1.4-0.6-2.9-0.9-4.4-0.9
					c-1.6,0-3.1,0.3-4.6,0.9c-1.4,0.6-2.8,1.5-3.9,2.6c-0.4,0.4-0.9,0.7-1.4,0.9C218.3,151.4,217.8,151.5,217.2,151.5z"/>
				<path class="st0" d="M259.5,151.5c-0.5,0-1.1-0.1-1.6-0.3s-1-0.5-1.4-0.9c-0.8-0.8-1.3-1.9-1.3-3c0-1.1,0.4-2.2,1.3-3
					c1.9-1.9,4.2-3.4,6.7-4.5s5.1-1.6,7.9-1.6c2.6,0,5.2,0.5,7.6,1.5s4.6,2.4,6.5,4.2c0.9,0.8,1.3,1.9,1.3,3c0,1.1-0.4,2.2-1.2,3.1
					c-0.8,0.9-1.9,1.3-3,1.3s-2.2-0.4-3.1-1.2c-1.1-1.1-2.4-1.9-3.8-2.4c-1.4-0.6-2.9-0.9-4.4-0.9c-1.6,0-3.1,0.3-4.6,0.9
					c-1.4,0.6-2.8,1.5-3.9,2.6c-0.4,0.4-0.9,0.7-1.4,0.9C260.6,151.4,260.1,151.5,259.5,151.5z"/>
			</g>
			<path class="st8" d="M270.9,184.1h-21h-21c-0.5,0-0.9,0.2-1.1,0.6c-0.3,0.3-0.4,0.8-0.2,1.3c0.6,2.2,2.1,6.5,5.6,10.2
				c3.4,3.7,8.7,6.8,16.8,6.5c8.9-0.3,14.2-3.4,17.5-6.9c3.2-3.5,4.4-7.6,5-9.8c0.1-0.4,0-0.9-0.2-1.2
				C271.8,184.3,271.4,184.1,270.9,184.1z"/>
			<path class="st3" d="M255.4,177.1h-6.1h-6.1c-1.3,0-2.4-0.6-3-1.6c-0.6-0.9-0.9-2.2-0.4-3.4l4.6-11.5l4.6-11.5
				c0.2-0.6,0.8-0.9,1.4-0.9s1.1,0.4,1.3,1l3.6,11.6l3.6,11.6c0.4,1.2,0.1,2.4-0.5,3.2C257.7,176.6,256.7,177.1,255.4,177.1z"/>
		</g>
	</g>
	<path class="st0" d="M295.2,101.2c0.6-1.8,0.9-3.8,0.9-5.8c0-11-8.9-19.9-19.9-19.9c-1,0-1.9,0.1-2.9,0.2c-4.8-5.7-12-9.3-20-9.3
		c-7.8,0-14.7,3.4-19.5,8.7c-2.1-0.6-4.4-0.9-6.7-0.9c-13.8,0-25,11.2-25,25c0,5.6,1.9,10.8,5,15c-6.7,3.2-11.3,10-11.3,17.9
		c0,10.9,8.8,19.7,19.7,19.7s19.7-8.8,19.7-19.7c0-1.2-0.1-2.3-0.3-3.4c3.2,1.4,6.7,2.2,10.4,2.2c11.1,0,20.5-6.9,24.3-16.6
		c0,0,0.1,0,0.1,0c-0.1,0.8-0.2,1.7-0.2,2.6c0,9.7,7.9,17.6,17.6,17.6s17.6-7.9,17.6-17.6C304.6,110.1,300.8,104.2,295.2,101.2z"/>
	<g>
		<g>
			<path class="st7" d="M303.4,240.3c14.4,0.9,26.8,10.3,31.7,23.8l31.3,102.6c5.3,17.4-7.7,34.9-25.8,34.9H297
				c-18.7,0-33.9-15.2-33.9-33.9l0,0l53.4-96.1c7.8-14-2.4-31.2-18.4-31.2l0,0L303.4,240.3L303.4,240.3z"/>
			<path class="st4" d="M298.5,386.9h-28.2c-6.6,0-12-5.4-12-12l0,0c0-6.6,5.4-12,12-12h28.2c6.6,0,12,5.4,12,12l0,0
				C310.4,381.5,305.1,386.9,298.5,386.9z"/>
		</g>
		<g>
			<path class="st7" d="M196.9,240.3c-14.4,0.9-26.8,10.3-31.7,23.8L134,366.7c-5.3,17.4,7.7,34.9,25.8,34.9h43.6
				c18.7,0,33.9-15.2,33.9-33.9l0,0l-53.4-96.1c-7.8-14,2.4-31.2,18.4-31.2l0,0L196.9,240.3L196.9,240.3z"/>
			<path class="st4" d="M201.9,386.9h28.2c6.6,0,11.9-5.4,11.9-12l0,0c0-6.6-5.4-12-11.9-12h-28.2c-6.6,0-11.9,5.4-11.9,12l0,0
				C189.9,381.5,195.3,386.9,201.9,386.9z"/>
		</g>
	</g>
	<path class="st0" d="M284,261.2h47.5c2.4,0,4.4,2,4.4,4.4v101.1H166v-101c0-2.4,2-4.4,4.4-4.4h52.3L284,261.2L284,261.2z"/>
	<path class="st10" d="M335.9,366.7H166h-10.2v3.9c0,2.5,2.1,4.6,4.6,4.6h181.2c2.5,0,4.6-2,4.6-4.6v-3.9H335.9z"/>
	<path class="st11" d="M272,366.7h-42h-5.1v1.9c0,1.3,1,2.3,2.3,2.3h47.7c1.3,0,2.3-1,2.3-2.3v-1.9H272z"/>
	<polygon class="st8" points="284.2,267.9 284,267.9 223,267.9 222.4,267.9 172.6,267.9 172.6,317.9 172.6,359.9 329.3,359.9 
		329.3,321.9 329.3,267.9 	"/>
	<polygon class="st12" points="284.2,276.8 284,276.8 223,276.8 222.4,276.8 172.6,276.8 172.6,322 172.6,359.9 329.3,359.9 
		329.3,325.6 329.3,276.8 	"/>
	<polygon class="st13" points="179.5,276.8 179.5,276.8 175.7,276.8 175.7,276.8 172.6,276.8 172.6,322 172.6,359.9 182.2,359.9 
		182.2,325.6 182.2,276.8 	"/>
	<g>
		<g>
			<rect x="187.8" y="285.6" class="st14" width="41.1" height="4.3"/>
			<rect x="235.5" y="285.6" class="st15" width="22.7" height="4.3"/>
			<rect x="264.8" y="285.6" class="st16" width="26.2" height="4.3"/>
		</g>
		<g>
			<rect x="187.8" y="294.2" class="st15" width="22.7" height="4.3"/>
			<rect x="217.1" y="294.2" class="st16" width="31.5" height="4.3"/>
		</g>
		<g>
			<rect x="187.8" y="302.8" class="st15" width="41.1" height="4.3"/>
			<rect x="235.5" y="302.8" class="st14" width="37.7" height="4.3"/>
			<rect x="279.8" y="302.8" class="st16" width="26.4" height="4.3"/>
		</g>
		<g>
			<rect x="187.8" y="311.3" class="st16" width="31" height="4.3"/>
			<rect x="225.4" y="311.3" class="st15" width="34" height="4.3"/>
		</g>
		<g>
			<rect x="187.8" y="319.9" class="st14" width="41.1" height="4.3"/>
			<rect x="235.5" y="319.9" class="st16" width="31.1" height="4.3"/>
			<rect x="273.2" y="319.9" class="st15" width="17.9" height="4.3"/>
		</g>
		<g>
			<rect x="187.8" y="328.5" class="st15" width="22.7" height="4.3"/>
			<rect x="217.1" y="328.5" class="st16" width="31.5" height="4.3"/>
		</g>
		<g>
			<rect x="187.8" y="337" class="st15" width="41.1" height="4.3"/>
			<rect x="235.5" y="337" class="st14" width="37.7" height="4.3"/>
			<rect x="279.8" y="337" class="st16" width="26.4" height="4.3"/>
		</g>
		<g>
			<rect x="187.8" y="345.6" class="st16" width="31" height="4.3"/>
			<rect x="225.4" y="345.6" class="st15" width="34" height="4.3"/>
		</g>
	</g>
	<rect x="177.8" y="285.6" class="st8" width="4.4" height="64.2"/>
	<ellipse class="st17" cx="270.9" cy="161.4" rx="14.3" ry="14.3"/>
	<ellipse class="st18" cx="228.6" cy="161.4" rx="14.3" ry="14.3"/>
	<path class="st0" d="M234.2,161.4c0,1.6-0.6,3-1.6,4c-1,1-2.4,1.6-4,1.6s-3-0.6-4-1.6c-1-1-1.6-2.4-1.6-4s0.6-3,1.6-4
		c1-1,2.4-1.6,4-1.6s3,0.6,4,1.6C233.6,158.4,234.2,159.8,234.2,161.4z"/>
	<path class="st0" d="M276.5,161.4c0,1.6-0.6,3-1.6,4c-1,1-2.4,1.6-4,1.6s-3-0.6-4-1.6c-1-1-1.6-2.4-1.6-4s0.6-3,1.6-4
		c1-1,2.4-1.6,4-1.6s3,0.6,4,1.6C275.9,158.4,276.5,159.8,276.5,161.4z"/>
	<g>
		<path class="st19" d="M242.9,162c0-3.8,3.1-6.9,6.9-6.9c3.8,0,6.9,3.1,6.9,6.9"/>
	</g>
	<g>
		<line class="st19" x1="284.9" y1="156" x2="300.5" y2="156"/>
		<line class="st19" x1="199" y1="156" x2="214.5" y2="156"/>
	</g>
	<rect x="-71.4" y="199.5" class="st7" width="28.2" height="47.9"/>
</g>
<g id="DESIGNED_BY_FREEPIK">
</g>
</svg>
